<svg xmlns="http://www.w3.org/2000/svg" viewBox="0 0 1200 630" width="1200" height="630">
  <!-- Background gradient tide-100 → tide-200 -->
  <defs>
    <linearGradient id="bg" x1="0%" y1="0%" x2="0%" y2="100%">
      <stop offset="0%" style="stop-color:#e0f2fe"/>
      <stop offset="100%" style="stop-color:#bae6fd"/>
    </linearGradient>
  </defs>
  <rect width="1200" height="630" fill="url(#bg)"/>
  
  <!-- Waves icon (from alexa-skill/icons/icon.svg) - centered and scaled -->
  <g transform="translate(500, 100) scale(0.9)">
    <!-- Duotone fill - tide-200 (#bae6fd) -->
    <path d="M216,70.39v112c-72,59.69-104-56.47-176,3.22v-112C112,13.92,144,130.08,216,70.39Z" fill="#7dd3fc"/>
    <!-- Main waves - tide-500 (#0ea5e9) -->
    <path fill="#0ea5e9" d="M222.16,177.25a8,8,0,0,1-1,11.25c-17.36,14.39-32.86,19.5-47,19.5-18.58,0-34.82-8.82-49.93-17-25.35-13.76-47.24-25.64-79.07.74a8,8,0,1,1-10.22-12.31c40.17-33.28,70.32-16.92,96.93-2.48,25.35,13.75,47.24,25.63,79.07-.74A8,8,0,0,1,222.16,177.25Zm-11.27-57c-31.83,26.38-53.72,14.5-79.07.74-26.61-14.43-56.76-30.79-96.93,2.49a8,8,0,0,0,10.22,12.31c31.83-26.38,53.72-14.5,79.07-.74,15.11,8.19,31.35,17,49.93,17,14.14,0,29.64-5.11,47-19.5a8,8,0,1,0-10.22-12.31ZM45.11,79.8c31.83-26.37,53.72-14.49,79.07-.74,15.11,8.2,31.35,17,49.93,17,14.14,0,29.64-5.12,47-19.5a8,8,0,1,0-10.22-12.31c-31.83,26.38-53.72,14.5-79.07.74C105.21,50.58,75.06,34.22,34.89,67.5A8,8,0,1,0,45.11,79.8Z"/>
  </g>
  
  <!-- Title -->
  <text x="600" y="420" text-anchor="middle" font-family="system-ui, -apple-system, sans-serif" font-size="72" font-weight="700" fill="#0369a1">Tábua de Marés</text>
  
  <!-- Subtitle -->
  <text x="600" y="500" text-anchor="middle" font-family="system-ui, -apple-system, sans-serif" font-size="48" font-weight="500" fill="#0ea5e9">Maceió 2026</text>
  
  <!-- URL footer -->
  <text x="600" y="590" text-anchor="middle" font-family="system-ui, -apple-system, sans-serif" font-size="24" fill="#38bdf8">tabuademares.maceio.br</text>
</svg>
